<svg xmlns="http://www.w3.org/2000/svg" width="16" height="16"><g fill="#474747" color="#000"><path d="M10.293 2.293L4.586 8l5.707 5.707 1.414-1.414L7.414 8l4.293-4.293z" font-family="sans-serif" font-weight="400" overflow="visible" white-space="normal" style="line-height:normal;font-variant-ligatures:normal;font-variant-position:normal;font-variant-caps:normal;font-variant-numeric:normal;font-variant-alternates:normal;font-feature-settings:normal;text-indent:0;text-align:start;text-decoration-line:none;text-decoration-style:solid;text-decoration-color:#000;text-transform:none;text-orientation:mixed;shape-padding:0;isolation:auto;mix-blend-mode:normal;marker:none"/><path d="M11 13h1v1h-1zM11 2h1v1h-1z" overflow="visible" style="marker:none"/><path d="M11 2c.554 0 1 .446 1 1s-.446 1-1 1-1-.446-1-1 .446-1 1-1zM11 12c.554 0 1 .446 1 1s-.446 1-1 1-1-.446-1-1 .446-1 1-1z" overflow="visible" style="marker:none"/></g></svg>