<svg xmlns="http://www.w3.org/2000/svg" xmlns:svg="http://www.w3.org/2000/svg" id="svg12" width="240" height="240" version="1.1" viewBox="0 0 63.499 63.499"><metadata id="metadata18"/><g id="g10" transform="matrix(3.7037086,0,0,3.7037086,0.39192509,-1036.8817)"><circle id="circle2" cx="8.467" cy="288.53" r="7.144" style="fill:#3889e9"/><path id="path4" d="m 7.483,282.713 a 5.904,5.904 0 0 0 -0.492,0.108 v 1.776 H 5.022 v -0.85 a 5.904,5.904 0 0 0 -0.492,0.395 v 0.455 H 4.074 a 5.904,5.904 0 0 0 -0.397,0.492 H 4.53 v 1.968 H 2.756 a 5.904,5.904 0 0 0 -0.104,0.492 H 4.53 v 1.968 H 2.646 a 5.904,5.904 0 0 0 0.108,0.492 H 4.53 v 1.969 H 3.68 a 5.904,5.904 0 0 0 0.395,0.492 H 4.53 v 0.456 a 5.904,5.904 0 0 0 0.492,0.397 v -0.853 h 1.969 v 1.773 a 5.904,5.904 0 0 0 0.492,0.105 V 292.47 H 9.45 v 1.884 a 5.904,5.904 0 0 0 0.492,-0.108 v -1.776 h 1.968 v 0.85 a 5.904,5.904 0 0 0 0.492,-0.395 v -0.455 h 0.456 a 5.904,5.904 0 0 0 0.397,-0.492 h -0.853 v -1.969 h 1.773 a 5.904,5.904 0 0 0 0.106,-0.492 h -1.879 v -1.968 h 1.884 a 5.904,5.904 0 0 0 -0.108,-0.492 h -1.776 v -1.968 h 0.85 a 5.904,5.904 0 0 0 -0.395,-0.492 h -0.455 v -0.456 a 5.904,5.904 0 0 0 -0.492,-0.397 v 0.853 H 9.943 v -1.774 a 5.904,5.904 0 0 0 -0.492,-0.105 v 1.88 H 7.483 Z m -2.46,2.376 H 6.99 v 1.968 H 5.022 Z m 2.46,0 H 9.45 v 1.968 H 7.483 Z m 2.46,0 h 1.968 v 1.968 H 9.943 Z m -4.92,2.46 H 6.99 v 1.968 H 5.022 Z m 2.46,0 H 9.45 v 1.968 H 7.483 Z m 2.46,0 h 1.968 v 1.968 H 9.943 Z m -4.92,2.46 H 6.99 v 1.969 H 5.022 Z m 2.46,0 H 9.45 v 1.969 H 7.483 Z m 2.46,0 h 1.968 v 1.969 H 9.943 Z" style="fill:#fcfcfc;fill-opacity:.05899999"/><path id="path6" d="m 8.467,282.18 a 6.35,6.35 0 0 0 -6.35,6.35 6.35,6.35 0 0 0 6.35,6.35 6.35,6.35 0 0 0 6.35,-6.35 6.35,6.35 0 0 0 -6.35,-6.35 z m 0,0.53 a 5.82,5.82 0 0 1 5.82,5.82 5.82,5.82 0 0 1 -5.82,5.821 5.82,5.82 0 0 1 -5.821,-5.82 5.82,5.82 0 0 1 5.82,-5.822 z" style="opacity:.2;fill:#fff"/><path id="path8" d="m 9.157,285.387 c -0.44,0.033 -0.9,0.203 -1.32,0.413 0.84,0 1.26,0.42 1.68,0.84 l 0.84,0.842 v 0.42 l 0.42,0.421 1.262,-1.261 -0.42,-0.421 h -0.42 l -0.841,-0.84 c -0.34,-0.34 -0.76,-0.446 -1.201,-0.414 z m 0.36,1.255 -1.68,1.681 h -0.42 l -2.522,2.521 0.84,0.84 2.522,-2.52 v -0.42 l 1.68,-1.682 z" style="fill:#fff;fill-rule:evenodd"/></g></svg>