<svg xmlns="http://www.w3.org/2000/svg" xmlns:svg="http://www.w3.org/2000/svg" id="svg7" width="240" height="240" version="1.1" viewBox="0 0 240 240"><metadata id="metadata11"/><defs id="defs3"><style id="current-color-scheme" type="text/css">.ColorScheme-Text{color:#aaa}</style></defs><g id="layer1"><rect style="opacity:1;fill:#e6e6e6;fill-opacity:1;stroke:#fff;stroke-width:0;stroke-miterlimit:4;stroke-dasharray:none;stroke-opacity:1" id="rect820" width="200" height="200" x="20" y="20" ry="29.698"/></g><g id="layer2"><path style="color:#aaa;fill:#ee4f84;fill-opacity:1;stroke-width:15.6059494" id="path5" d="m 166.84833,57.5 a 15.605949,15.605949 0 0 0 -11.0339,4.572067 L 120.03049,97.85601 84.398927,62.224446 a 15.605949,15.605949 0 0 0 -0.15245,-0.152883 15.605949,15.605949 0 0 0 -10.94246,-4.511106 l -0.15232,0.213942 A 15.605949,15.605949 0 0 0 57.545723,73.38034 15.605949,15.605949 0 0 0 62.11778,84.41423 l 35.783957,35.7839 -35.783957,35.78394 a 15.605949,15.605949 0 0 0 -4.511096,10.91196 15.605949,15.605949 0 0 0 15.605953,15.60597 15.605949,15.605949 0 0 0 11.03389,-4.57207 l 35.783963,-35.78394 35.63153,35.63155 a 15.605949,15.605949 0 0 0 11.18631,4.72446 15.605949,15.605949 0 0 0 15.60595,-15.60597 15.605949,15.605949 0 0 0 -4.57205,-11.03389 L 141.97635,119.98476 177.6079,84.3532 A 15.605949,15.605949 0 0 0 182.45428,73.10593 15.605949,15.605949 0 0 0 166.84833,57.5 Z" class="ColorScheme-Text"/></g></svg>